<mxfile host="app.diagrams.net" modified="2023-08-31T15:42:18.910Z" agent="Mozilla/5.0 (Windows NT 10.0; Win64; x64) AppleWebKit/537.36 (KHTML, like Gecko) Chrome/116.0.0.0 Safari/537.36 Edg/116.0.1938.62" version="21.7.1" etag="Z-ZRMA1KeNq7XMiI16yw" type="github">
  <diagram name="PÃ¡gina-1" id="5_hvcbWnSzZuknUoEpMf">
    <mxGraphModel>
      <root>
        <mxCell id="0" />
        <mxCell id="1" parent="0" />
      </root>
    </mxGraphModel>
  </diagram>
</mxfile>
